<?xml version="1.0" encoding="utf-8"?><!-- Generator: Adobe Illustrator 17.1.0, SVG Export Plug-In . SVG Version: 6.00 Build 0)  --><!DOCTYPE svg PUBLIC "-//W3C//DTD SVG 1.0//EN" "http://www.w3.org/TR/2001/REC-SVG-20010904/DTD/svg10.dtd"><svg xmlns="http://www.w3.org/2000/svg" xmlns:xlink="http://www.w3.org/1999/xlink" viewBox="0 0 50 50" width="20px" height="20px"><rect x="0" style="fill:none;" width="50" height="50"/><path style="fill:none;stroke:#000000;stroke-width:2;stroke-linecap:round;stroke-miterlimit:10;" d="M34.6,13.1c0,0-1.1-3.6-1.3-4.3c-1.8-5.8-8-9.1-13.8-7.3c-5.8,1.8-9.1,8-7.3,13.8C12.6,16.4,14,21,14,21"/><path d="M41,20H9c-1.7,0-3,1.3-3,3v24c0,1.7,1.3,3,3,3h32c1.7,0,3-1.3,3-3V23C44,21.3,42.7,20,41,20z M27,35.2V38c0,1.1-0.9,2-2,2s-2-0.9-2-2v-2.8c-0.6-0.5-1-1.3-1-2.2c0-1.7,1.3-3,3-3s3,1.3,3,3C28,33.9,27.6,34.7,27,35.2z"/></svg>